<svg width="1440" height="574" viewBox="0 0 1440 574" fill="none" xmlns="http://www.w3.org/2000/svg">
<path d="M1440 0H0V455.603C0 455.603 231 385.247 380 416.829C529 448.41 802.5 653.048 1054.5 469.379C1306.5 285.709 1440 511.725 1440 511.725V0Z" fill="#A18EED"/>
<path d="M1440 0H0V455.603C0 455.603 231 385.247 380 416.829C529 448.41 802.5 653.048 1054.5 469.379C1306.5 285.709 1440 511.725 1440 511.725V0Z" fill="#A18EED"/>
<path d="M1440 0H0V438.123C0 438.123 61.5 392.652 228 477.709C394.5 562.766 576.5 561.696 815.5 452.567C1054.5 343.437 1440 574 1440 574V0Z" fill="#8571D5"/>
<path d="M1440 0H0V438.123C0 438.123 61.5 392.652 228 477.709C394.5 562.766 576.5 561.696 815.5 452.567C1054.5 343.437 1440 574 1440 574V0Z" fill="#8571D5"/>
<path d="M1440 0H0V529C0 529 213.5 387.866 378.5 387.866C543.5 387.866 669.5 558.953 983.5 427.972C1297.5 296.991 1440 529 1440 529V0Z" fill="#4F3AA2"/>
<path d="M1440 0H0V529C0 529 213.5 387.866 378.5 387.866C543.5 387.866 669.5 558.953 983.5 427.972C1297.5 296.991 1440 529 1440 529V0Z" fill="#4F3AA2"/>
</svg>
